<svg xmlns="http://www.w3.org/2000/svg" width="676" height="653"><defs><style>@import url('https://fonts.googleapis.com/css2?family=Roboto+Mono&amp;display=swap')</style><style>text,text&gt;tspan{font-family:'Roboto Mono';font-size:16px} rect{stroke:black} line,path{fill:none;stroke:black}</style><marker id="arrowMarker" orient="auto" refX="4" refY="3" markerHeight="6" markerWidth="3"><path style="fill:black;stroke:black" d="M 0 0 L 3 3 L 0 6 Z"></path></marker><marker id="inheritMarker" orient="auto" refX="10" refY="4.5" markerHeight="9" markerWidth="9"><path style="fill:white;stroke:black" d="M 0 0 L 9 4.5 L 0 9 Z"></path></marker><marker id="aggregationMarker" orient="auto" refX="13" refY="4.5" markerHeight="9" markerWidth="12"><path style="fill:white;stroke:black" d="M 0 4.5 L 6 0 L 12 4.5 L 6 9 Z"></path></marker><marker id="compositionMarker" orient="auto" refX="13" refY="4.5" markerHeight="9" markerWidth="12"><path style="fill:black;stroke:black" d="M 0 4.5 L 6 0 L 12 4.5 L 6 9 Z"></path></marker></defs><g transform="translate(12,3)"><rect height="54" width="82" style="fill:white"></rect><rect height="19" width="82" style="fill:white"></rect><text x="3" y="16">Parcours</text><text><tspan x="1.5" y="35" style="text-decoration:underline">id</tspan><tspan x="1.5" y="51">nom</tspan></text></g><g transform="translate(22,247)"><rect height="54" width="63" style="fill:white"></rect><rect height="19" width="63" style="fill:white"></rect><text x="3" y="16">Niveau</text><text><tspan x="1.5" y="35" style="text-decoration:underline">id</tspan><tspan x="1.5" y="51">nom</tspan></text></g><g transform="translate(349,215)"><rect height="118" width="91" style="fill:white"></rect><rect height="19" width="91.5" style="fill:white"></rect><text x="7.75" y="16">Etudiant</text><text><tspan x="1.5" y="35" style="text-decoration:underline">id</tspan><tspan x="1.5" y="51">nom</tspan><tspan x="1.5" y="67">prenom</tspan><tspan x="1.5" y="83">adresse</tspan><tspan x="1.5" y="99">email</tspan><tspan x="1.5" y="115">numeroTel</tspan></text></g><g transform="translate(183,393)"><rect height="70" width="72" style="fill:white"></rect><rect height="19" width="72.5" style="fill:white"></rect><text x="3" y="16">Matiere</text><text><tspan x="1.5" y="35" style="text-decoration:underline">id</tspan><tspan x="1.5" y="51">nom</tspan><tspan x="1.5" y="67">nbHeure</tspan></text></g><g transform="translate(515,393)"><rect height="70" width="101" style="fill:white"></rect><rect height="19" width="101" style="fill:white"></rect><text x="26.75" y="16">Cours</text><text><tspan x="1.5" y="35" style="text-decoration:underline">date</tspan><tspan x="1.5" y="51" style="text-decoration:underline">heureDebut</tspan><tspan x="1.5" y="67">heureFin</tspan></text></g><g transform="translate(3,523)"><rect height="70" width="101" style="fill:white"></rect><rect height="19" width="101" style="fill:white"></rect><text x="3" y="16">Professeur</text><text><tspan x="1.5" y="35" style="text-decoration:underline">id</tspan><tspan x="1.5" y="51">nom</tspan><tspan x="1.5" y="67">prenom</tspan></text></g><g transform="translate(7,117)"><rect height="38" width="92" rx="20" ry="20" style="fill:white"></rect><line x1="0" x2="92" y1="19" y2="19"></line><text x="8" y="17">Contient</text><text></text></g><g transform="translate(164,255)"><rect height="38" width="111" rx="20" ry="20" style="fill:white"></rect><line x1="0" x2="111" y1="19" y2="19"></line><text x="8" y="17">Appartenir</text><text></text></g><g transform="translate(519,255)"><rect height="38" width="92" rx="20" ry="20" style="fill:white"></rect><line x1="0" x2="92" y1="19" y2="19"></line><text x="8" y="17">Assister</text><text><tspan x="8" y="35">presence</tspan></text></g><g transform="translate(7,409)"><rect height="38" width="92" rx="20" ry="20" style="fill:white"></rect><line x1="0" x2="92" y1="19" y2="19"></line><text x="8" y="17">Contenir</text><text></text></g><g transform="translate(335,409)"><rect height="38" width="120.5" rx="20" ry="20" style="fill:white"></rect><line x1="0" x2="120.5" y1="19" y2="19"></line><text x="8" y="17">S'effectuer</text><text></text></g><g transform="translate(169,539)"><rect height="38" width="101.5" rx="20" ry="20" style="fill:white"></rect><line x1="0" x2="101.5" y1="19" y2="19"></line><text x="8" y="17">Enseigner</text><text></text></g><g><line x1="53" x2="53" y1="117" y2="57"></line><text x="56" y="73">1,N</text></g><g><line x1="53" x2="53" y1="155" y2="247"></line><text x="56" y="244">1,N</text></g><g><line x1="275" x2="349" y1="274" y2="274"></line><text x="316" y="290">1,1</text></g><g><line x1="164" x2="85" y1="274" y2="274"></line><text x="88" y="290">1,N</text></g><g><line x1="519" x2="440" y1="274" y2="274"></line><text x="443" y="290">1,N</text></g><g><line x1="565" x2="565" y1="293" y2="393"></line><text x="568" y="390">1,N</text></g><g><line x1="53" x2="53" y1="409" y2="301"></line><text x="56" y="317">1,N</text></g><g><line x1="99" x2="183" y1="428" y2="428"></line><text x="150" y="444">1,N</text></g><g><line x1="335" x2="255" y1="428" y2="428"></line><text x="258" y="444">1,N</text></g><g><line x1="455" x2="515" y1="428" y2="428"></line><text x="482" y="444">1,1</text></g><g><line x1="219" x2="219" y1="539" y2="463"></line><text x="222" y="479">1,N</text></g><g><line x1="169" x2="104" y1="558" y2="558"></line><text x="107" y="574">1,N</text></g></svg>