<svg xmlns="http://www.w3.org/2000/svg" width="686" height="653"><defs><style>@import url('https://fonts.googleapis.com/css2?family=Roboto+Mono&amp;display=swap')</style><style>text,text&gt;tspan{font-family:'Roboto Mono';font-size:16px} rect{stroke:black} line,path{fill:none;stroke:black}</style><marker id="arrowMarker" orient="auto" refX="4" refY="3" markerHeight="6" markerWidth="3"><path style="fill:black;stroke:black" d="M 0 0 L 3 3 L 0 6 Z"></path></marker><marker id="inheritMarker" orient="auto" refX="10" refY="4.5" markerHeight="9" markerWidth="9"><path style="fill:white;stroke:black" d="M 0 0 L 9 4.5 L 0 9 Z"></path></marker><marker id="aggregationMarker" orient="auto" refX="13" refY="4.5" markerHeight="9" markerWidth="12"><path style="fill:white;stroke:black" d="M 0 4.5 L 6 0 L 12 4.5 L 6 9 Z"></path></marker><marker id="compositionMarker" orient="auto" refX="13" refY="4.5" markerHeight="9" markerWidth="12"><path style="fill:black;stroke:black" d="M 0 4.5 L 6 0 L 12 4.5 L 6 9 Z"></path></marker></defs><g transform="translate(17,3)"><rect height="54" width="82" style="fill:white"></rect><rect height="19" width="82" style="fill:white"></rect><text x="3" y="16">Parcours</text><text><tspan x="1.5" y="35" style="text-decoration:underline">id</tspan><tspan x="1.5" y="51">nom</tspan></text></g><g transform="translate(27,247)"><rect height="54" width="63" style="fill:white"></rect><rect height="19" width="63" style="fill:white"></rect><text x="3" y="16">Niveau</text><text><tspan x="1.5" y="35" style="text-decoration:underline">id</tspan><tspan x="1.5" y="51">nom</tspan></text></g><g transform="translate(359,215)"><rect height="118" width="91" style="fill:white"></rect><rect height="19" width="91.5" style="fill:white"></rect><text x="7.75" y="16">Etudiant</text><text><tspan x="1.5" y="35" style="text-decoration:underline">id</tspan><tspan x="1.5" y="51">nom</tspan><tspan x="1.5" y="67">prenom</tspan><tspan x="1.5" y="83">adresse</tspan><tspan x="1.5" y="99">email</tspan><tspan x="1.5" y="115">numeroTel</tspan></text></g><g transform="translate(193,393)"><rect height="70" width="72" style="fill:white"></rect><rect height="19" width="72.5" style="fill:white"></rect><text x="3" y="16">Matiere</text><text><tspan x="1.5" y="35" style="text-decoration:underline">id</tspan><tspan x="1.5" y="51">nom</tspan><tspan x="1.5" y="67">nbHeure</tspan></text></g><g transform="translate(525,393)"><rect height="70" width="101" style="fill:white"></rect><rect height="19" width="101" style="fill:white"></rect><text x="26.75" y="16">Cours</text><text><tspan x="1.5" y="35" style="text-decoration:underline">date</tspan><tspan x="1.5" y="51" style="text-decoration:underline">heureDebut</tspan><tspan x="1.5" y="67">heureFin</tspan></text></g><g transform="translate(8,523)"><rect height="70" width="101" style="fill:white"></rect><rect height="19" width="101" style="fill:white"></rect><text x="3" y="16">Professeur</text><text><tspan x="1.5" y="35" style="text-decoration:underline">id</tspan><tspan x="1.5" y="51">nom</tspan><tspan x="1.5" y="67">prenom</tspan></text></g><g transform="translate(3,117)"><rect height="38" width="111" rx="20" ry="20" style="fill:white"></rect><line x1="0" x2="111" y1="19" y2="19"></line><text x="8" y="17">Comprendre</text><text></text></g><g transform="translate(174,255)"><rect height="38" width="111" rx="20" ry="20" style="fill:white"></rect><line x1="0" x2="111" y1="19" y2="19"></line><text x="8" y="17">Appartenir</text><text></text></g><g transform="translate(529,255)"><rect height="38" width="92" rx="20" ry="20" style="fill:white"></rect><line x1="0" x2="92" y1="19" y2="19"></line><text x="8" y="17">Assister</text><text><tspan x="8" y="35">presence</tspan></text></g><g transform="translate(12,409)"><rect height="38" width="92" rx="20" ry="20" style="fill:white"></rect><line x1="0" x2="92" y1="19" y2="19"></line><text x="8" y="17">Contenir</text><text></text></g><g transform="translate(345,409)"><rect height="38" width="120.5" rx="20" ry="20" style="fill:white"></rect><line x1="0" x2="120.5" y1="19" y2="19"></line><text x="8" y="17">S'effectuer</text><text></text></g><g transform="translate(179,539)"><rect height="38" width="101.5" rx="20" ry="20" style="fill:white"></rect><line x1="0" x2="101.5" y1="19" y2="19"></line><text x="8" y="17">Enseigner</text><text></text></g><g><line x1="58" x2="58" y1="117" y2="57"></line><text x="61" y="73">1,N</text></g><g><line x1="58" x2="58" y1="155" y2="247"></line><text x="61" y="244">1,N</text></g><g><line x1="285" x2="359" y1="274" y2="274"></line><text x="326" y="290">1,1</text></g><g><line x1="174" x2="90" y1="274" y2="274"></line><text x="93" y="290">1,N</text></g><g><line x1="529" x2="450" y1="274" y2="274"></line><text x="453" y="290">1,N</text></g><g><line x1="575" x2="575" y1="293" y2="393"></line><text x="578" y="390">1,N</text></g><g><line x1="58" x2="58" y1="409" y2="301"></line><text x="61" y="317">1,N</text></g><g><line x1="104" x2="193" y1="428" y2="428"></line><text x="160" y="444">1,1</text></g><g><line x1="345" x2="265" y1="428" y2="428"></line><text x="268" y="444">1,N</text></g><g><line x1="465" x2="525" y1="428" y2="428"></line><text x="492" y="444">1,1</text></g><g><line x1="229" x2="229" y1="539" y2="463"></line><text x="232" y="479">1,1</text></g><g><line x1="179" x2="109" y1="558" y2="558"></line><text x="112" y="574">1,N</text></g></svg>