<svg xmlns="http://www.w3.org/2000/svg" width="656" height="717"><defs><style>@import url('https://fonts.googleapis.com/css2?family=Roboto+Mono&amp;display=swap')</style><style>text,text&gt;tspan{font-family:'Roboto Mono';font-size:16px} rect{stroke:black} line,path{fill:none;stroke:black}</style><marker id="arrowMarker" orient="auto" refX="4" refY="3" markerHeight="6" markerWidth="3"><path style="fill:black;stroke:black" d="M 0 0 L 3 3 L 0 6 Z"></path></marker><marker id="inheritMarker" orient="auto" refX="10" refY="4.5" markerHeight="9" markerWidth="9"><path style="fill:white;stroke:black" d="M 0 0 L 9 4.5 L 0 9 Z"></path></marker><marker id="aggregationMarker" orient="auto" refX="13" refY="4.5" markerHeight="9" markerWidth="12"><path style="fill:white;stroke:black" d="M 0 4.5 L 6 0 L 12 4.5 L 6 9 Z"></path></marker><marker id="compositionMarker" orient="auto" refX="13" refY="4.5" markerHeight="9" markerWidth="12"><path style="fill:black;stroke:black" d="M 0 4.5 L 6 0 L 12 4.5 L 6 9 Z"></path></marker></defs><g transform="translate(12,3)"><rect height="54" width="82" style="fill:white"></rect><rect height="19" width="82" style="fill:white"></rect><text x="3" y="16">Parcours</text><text><tspan x="1.5" y="35" style="text-decoration:underline">id</tspan><tspan x="1.5" y="51">nom</tspan></text></g><g transform="translate(22,271)"><rect height="54" width="63" style="fill:white"></rect><rect height="19" width="63" style="fill:white"></rect><text x="3" y="16">Niveau</text><text><tspan x="1.5" y="35" style="text-decoration:underline">id</tspan><tspan x="1.5" y="51">nom</tspan></text></g><g transform="translate(344,231)"><rect height="134" width="91" style="fill:white"></rect><rect height="19" width="91.5" style="fill:white"></rect><text x="7.75" y="16">Etudiant</text><text><tspan x="1.5" y="35" style="text-decoration:underline">id</tspan><tspan x="1.5" y="51">nom</tspan><tspan x="1.5" y="67">prenom</tspan><tspan x="1.5" y="83">adresse</tspan><tspan x="1.5" y="99">email</tspan><tspan x="1.5" y="115">numeroTel</tspan><tspan x="1.5" y="131">idNiveau</tspan></text></g><g transform="translate(164,425)"><rect height="102" width="120" style="fill:white"></rect><rect height="19" width="120" style="fill:white"></rect><text x="26.75" y="16">Matiere</text><text><tspan x="1.5" y="35" style="text-decoration:underline">id</tspan><tspan x="1.5" y="51">nom</tspan><tspan x="1.5" y="67">nbHeure</tspan><tspan x="1.5" y="83">idProfesseur</tspan><tspan x="1.5" y="99">idNiveau</tspan></text></g><g transform="translate(495,433)"><rect height="86" width="101" style="fill:white"></rect><rect height="19" width="101" style="fill:white"></rect><text x="26.75" y="16">Cours</text><text><tspan x="1.5" y="35" style="text-decoration:underline">date</tspan><tspan x="1.5" y="51" style="text-decoration:underline">heureDebut</tspan><tspan x="1.5" y="67">heureFin</tspan><tspan x="1.5" y="83">idMatiere</tspan></text></g><g transform="translate(3,587)"><rect height="70" width="101" style="fill:white"></rect><rect height="19" width="101" style="fill:white"></rect><text x="3" y="16">Professeur</text><text><tspan x="1.5" y="35" style="text-decoration:underline">id</tspan><tspan x="1.5" y="51">nom</tspan><tspan x="1.5" y="67">prenom</tspan></text></g><g transform="translate(495,255)"><rect height="86" width="101" style="fill:white"></rect><rect height="19" width="101" style="fill:white"></rect><text x="12.5" y="16">Assister</text><text><tspan x="1.5" y="35" style="text-decoration:underline">idEtudiant</tspan><tspan x="1.5" y="51" style="text-decoration:underline">dateCours</tspan><tspan x="1.5" y="67" style="text-decoration:underline">heureDebut</tspan><tspan x="1.5" y="83">presence</tspan></text></g><g transform="translate(3,117)"><rect height="54" width="101" style="fill:white"></rect><rect height="19" width="101" style="fill:white"></rect><text x="3" y="16">Comprendre</text><text><tspan x="1.5" y="35" style="text-decoration:underline">idParcours</tspan><tspan x="1.5" y="51" style="text-decoration:underline">idNiveau</tspan></text></g><g><path d="M 344 359 L 338 359 L 91 303 L 85 303" marker-end="url(#arrowMarker)"></path></g><g><path d="M 164 505 L 158 505 L 110 619 L 104 619" marker-end="url(#arrowMarker)"></path></g><g><path d="M 164 521 L 158 521 L 91 303 L 85 303" marker-end="url(#arrowMarker)"></path></g><g><path d="M 495 513 L 489 513 L 290 457 L 284 457" marker-end="url(#arrowMarker)"></path></g><g><path d="M 495 287 L 489 287 L 441 263 L 435 263" marker-end="url(#arrowMarker)"></path></g><g><path d="M 596 303 L 602 303 L 602 465 L 596 465" marker-end="url(#arrowMarker)"></path></g><g><path d="M 596 319 L 602 319 L 602 481 L 596 481" marker-end="url(#arrowMarker)"></path></g><g><path d="M 104 149 L 110 149 L 110 35 L 94 35" marker-end="url(#arrowMarker)"></path></g><g><path d="M 104 165 L 110 165 L 110 303 L 85 303" marker-end="url(#arrowMarker)"></path></g></svg>