<svg xmlns="http://www.w3.org/2000/svg" width="978" height="717"><defs><style>@import url('https://fonts.googleapis.com/css2?family=Roboto+Mono&amp;display=swap')</style><style>text,text&gt;tspan{font-family:'Roboto Mono';font-size:16px} rect{stroke:black} line,path{fill:none;stroke:black}</style><marker id="arrowMarker" orient="auto" refX="4" refY="3" markerHeight="6" markerWidth="3"><path style="fill:black;stroke:black" d="M 0 0 L 3 3 L 0 6 Z"></path></marker><marker id="inheritMarker" orient="auto" refX="10" refY="4.5" markerHeight="9" markerWidth="9"><path style="fill:white;stroke:black" d="M 0 0 L 9 4.5 L 0 9 Z"></path></marker><marker id="aggregationMarker" orient="auto" refX="13" refY="4.5" markerHeight="9" markerWidth="12"><path style="fill:white;stroke:black" d="M 0 4.5 L 6 0 L 12 4.5 L 6 9 Z"></path></marker><marker id="compositionMarker" orient="auto" refX="13" refY="4.5" markerHeight="9" markerWidth="12"><path style="fill:black;stroke:black" d="M 0 4.5 L 6 0 L 12 4.5 L 6 9 Z"></path></marker></defs><g transform="translate(17,3)"><rect height="54" width="158" style="fill:white"></rect><rect height="19" width="158" style="fill:white"></rect><text x="41" y="16">Parcours</text><text><tspan x="1.5" y="35" style="text-decoration:underline">id</tspan><tspan x="126.5" y="35">INT</tspan><tspan x="1.5" y="51">nom</tspan><tspan x="50.5" y="51">VARCHAR(50)</tspan></text></g><g transform="translate(22,271)"><rect height="54" width="148" style="fill:white"></rect><rect height="19" width="148.5" style="fill:white"></rect><text x="45.75" y="16">Niveau</text><text><tspan x="1.5" y="35" style="text-decoration:underline">id</tspan><tspan x="117" y="35">INT</tspan><tspan x="1.5" y="51">nom</tspan><tspan x="50.5" y="51">VARCHAR(2)</tspan></text></g><g transform="translate(476,231)"><rect height="134" width="215" style="fill:white"></rect><rect height="19" width="215" style="fill:white"></rect><text x="69.5" y="16">Etudiant</text><text><tspan x="1.5" y="35" style="text-decoration:underline">id</tspan><tspan x="183.5" y="35">INT</tspan><tspan x="1.5" y="51">nom</tspan><tspan x="107.5" y="51">VARCHAR(30)</tspan><tspan x="1.5" y="67">prenom</tspan><tspan x="107.5" y="67">VARCHAR(30)</tspan><tspan x="1.5" y="83">adresse</tspan><tspan x="107.5" y="83">VARCHAR(50)</tspan><tspan x="1.5" y="99">email</tspan><tspan x="107.5" y="99">VARCHAR(30)</tspan><tspan x="1.5" y="115">numeroTel</tspan><tspan x="107.5" y="115">VARCHAR(14)</tspan><tspan x="1.5" y="131">idNiveau</tspan><tspan x="183.5" y="131">INT</tspan></text></g><g transform="translate(249,425)"><rect height="102" width="167" style="fill:white"></rect><rect height="19" width="167.5" style="fill:white"></rect><text x="50.5" y="16">Matiere</text><text><tspan x="1.5" y="35" style="text-decoration:underline">id</tspan><tspan x="136" y="35">INT</tspan><tspan x="1.5" y="51">nom</tspan><tspan x="60" y="51">VARCHAR(50)</tspan><tspan x="1.5" y="67">nbHeure</tspan><tspan x="136" y="67">INT</tspan><tspan x="1.5" y="83">idProfesseur</tspan><tspan x="136" y="83">INT</tspan><tspan x="1.5" y="99">idNiveau</tspan><tspan x="136" y="99">INT</tspan></text></g><g transform="translate(755,433)"><rect height="86" width="158" style="fill:white"></rect><rect height="19" width="158" style="fill:white"></rect><text x="55.25" y="16">Cours</text><text><tspan x="1.5" y="35" style="text-decoration:underline">date</tspan><tspan x="117" y="35">DATE</tspan><tspan x="1.5" y="51" style="text-decoration:underline">heureDebut</tspan><tspan x="117" y="51">TIME</tspan><tspan x="1.5" y="67">heureFin</tspan><tspan x="117" y="67">TIME</tspan><tspan x="1.5" y="83">idMatiere</tspan><tspan x="126.5" y="83">INT</tspan></text></g><g transform="translate(3,587)"><rect height="70" width="186" style="fill:white"></rect><rect height="19" width="186.5" style="fill:white"></rect><text x="45.75" y="16">Professeur</text><text><tspan x="1.5" y="35" style="text-decoration:underline">id</tspan><tspan x="155" y="35">INT</tspan><tspan x="1.5" y="51">nom</tspan><tspan x="79" y="51">VARCHAR(30)</tspan><tspan x="1.5" y="67">prenom</tspan><tspan x="79" y="67">VARCHAR(30)</tspan></text></g><g transform="translate(751,255)"><rect height="86" width="167" style="fill:white"></rect><rect height="19" width="167.5" style="fill:white"></rect><text x="45.75" y="16">Assister</text><text><tspan x="1.5" y="35" style="text-decoration:underline">idEtudiant</tspan><tspan x="136" y="35">INT</tspan><tspan x="1.5" y="51" style="text-decoration:underline">dateCours</tspan><tspan x="126.5" y="51">DATE</tspan><tspan x="1.5" y="67" style="text-decoration:underline">heureDebut</tspan><tspan x="126.5" y="67">TIME</tspan><tspan x="1.5" y="83">presence</tspan><tspan x="98" y="83">BOOLEAN</tspan></text></g><g transform="translate(22,117)"><rect height="54" width="148" style="fill:white"></rect><rect height="19" width="148.5" style="fill:white"></rect><text x="26.75" y="16">Comprendre</text><text><tspan x="1.5" y="35" style="text-decoration:underline">idParcours</tspan><tspan x="117" y="35">INT</tspan><tspan x="1.5" y="51" style="text-decoration:underline">idNiveau</tspan><tspan x="117" y="51">INT</tspan></text></g><g><path d="M 476 359 L 470 359 L 176 303 L 170 303" marker-end="url(#arrowMarker)"></path></g><g><path d="M 249 505 L 243 505 L 195 619 L 189 619" marker-end="url(#arrowMarker)"></path></g><g><path d="M 249 521 L 243 521 L 176 303 L 170 303" marker-end="url(#arrowMarker)"></path></g><g><path d="M 755 513 L 749 513 L 422 457 L 416 457" marker-end="url(#arrowMarker)"></path></g><g><path d="M 751 287 L 745 287 L 697 263 L 691 263" marker-end="url(#arrowMarker)"></path></g><g><path d="M 918 303 L 924 303 L 924 465 L 913 465" marker-end="url(#arrowMarker)"></path></g><g><path d="M 918 319 L 924 319 L 924 481 L 913 481" marker-end="url(#arrowMarker)"></path></g><g><path d="M 170 149 L 181 149 L 181 35 L 175 35" marker-end="url(#arrowMarker)"></path></g><g><path d="M 170 165 L 176 165 L 176 303 L 170 303" marker-end="url(#arrowMarker)"></path></g></svg>